<?xml version="1.0" encoding="UTF-8"?>
<svg id="Livello_2" data-name="Livello 2" xmlns="http://www.w3.org/2000/svg" viewBox="0 0 5962.79 1233.48">
  <defs>
    <style>
      .cls-1 {
        fill: #ffcb00;
      }

      .cls-1, .cls-2 {
        stroke-width: 0px;
      }

      .cls-2 {
        fill: #fff;
      }
    </style>
  </defs>
  <g id="Livello_2-2" data-name="Livello 2">
    <g id="Livello_1-2" data-name="Livello 1-2">
      <g>
        <path class="cls-2" d="M530.54,61.2h94.09L225.03,1007.7h-92.74l34.33-63.41c122.59-228.36,58.03-319.16-7.37-501.89L0,61.2h94.11l216.85,520.99L530.54,61.2Z"/>
        <g>
          <path class="cls-2" d="M605.65,377.24c0-203.62,152.72-337.07,335.69-337.07s337.07,133.45,337.07,337.07-154.08,338.45-337.07,338.45-335.69-134.83-335.69-338.45h0ZM1190.37,377.24c0-151.34-114.19-253.15-249.02-253.15s-247.64,101.81-247.64,253.15,111.45,254.52,247.64,254.52,249.02-103.18,249.02-254.52h0Z"/>
          <g>
            <g>
              <path class="cls-2" d="M2490.29,711.14c-174.29,0-316.09-145.95-316.09-325.34s141.8-325.34,316.09-325.34,316.09,145.95,316.09,325.34-141.8,325.34-316.09,325.34ZM2492.17,83.61c-167.02,0-302.91,135.88-302.91,302.91s135.88,302.91,302.91,302.91,302.91-135.88,302.91-302.91-135.88-302.91-302.91-302.91h0Z"/>
              <path class="cls-2" d="M2490.29,720.33c-179.36,0-325.28-150.07-325.28-334.53s145.92-334.53,325.28-334.53,325.28,150.07,325.28,334.53-145.92,334.53-325.28,334.53ZM2265.89,601.25c56.06,61.92,135.91,100.69,224.4,100.69,58.3,0,112.85-16.83,159.32-46.02-46.25,27.13-100.05,42.69-157.43,42.69-88.98,0-169.37-37.43-226.28-97.36h-.01ZM2492.17,92.8c-161.95,0-293.71,131.76-293.71,293.71s131.76,293.71,293.71,293.71,293.71-131.76,293.71-293.71-131.76-293.71-293.71-293.71h0ZM2490.29,69.66c-101.41,0-191.48,50.93-247.39,129.26,57.01-75.57,147.54-124.5,249.28-124.5,70.08,0,134.84,23.22,186.99,62.37-52.11-42.03-117.71-67.12-188.87-67.12h-.01Z"/>
            </g>
            <g>
              <path class="cls-2" d="M2489.5,658.1c-147.54,0-267.57-120.03-267.57-267.57s120.03-267.57,267.57-267.57,267.57,120.03,267.57,267.57-120.03,267.57-267.57,267.57ZM2489.5,136.7c-139.96,0-253.82,113.86-253.82,253.82s113.86,253.82,253.82,253.82,253.82-113.86,253.82-253.82-113.86-253.82-253.82-253.82Z"/>
              <path class="cls-2" d="M2489.5,658.94c-148,0-268.41-120.41-268.41-268.41s120.41-268.41,268.41-268.41,268.41,120.41,268.41,268.41-120.41,268.41-268.41,268.41ZM2489.5,123.79c-147.08,0-266.74,119.66-266.74,266.74s119.66,266.74,266.74,266.74,266.74-119.66,266.74-266.74-119.66-266.74-266.74-266.74h0ZM2489.5,645.18c-140.42,0-254.66-114.24-254.66-254.66s114.24-254.66,254.66-254.66,254.66,114.24,254.66,254.66-114.24,254.66-254.66,254.66ZM2489.5,137.54c-139.5,0-252.99,113.49-252.99,252.99s113.49,252.99,252.99,252.99,252.99-113.49,252.99-252.99-113.49-252.99-252.99-252.99Z"/>
            </g>
            <g>
              <path class="cls-2" d="M2449.43,757.36c-203.78,0-369.56-165.78-369.56-369.56S2245.66,18.24,2449.43,18.24s369.56,165.78,369.56,369.56-165.78,369.56-369.56,369.56h0ZM2449.43,35.42c-194.3,0-352.37,158.07-352.37,352.37s158.07,352.37,352.37,352.37,352.37-158.07,352.37-352.37-158.07-352.37-352.37-352.37h0Z"/>
              <path class="cls-2" d="M2449.43,769.89c-210.69,0-382.1-171.41-382.1-382.1S2238.75,5.7,2449.43,5.7s382.1,171.41,382.1,382.1-171.41,382.1-382.1,382.1h0ZM2449.43,47.96c-187.39,0-339.84,152.45-339.84,339.84s152.45,339.84,339.84,339.84,339.84-152.45,339.84-339.84-152.45-339.84-339.84-339.84Z"/>
            </g>
            <g>
              <path class="cls-1" d="M2743.47,364.47c-76.63-24.19-164.76-37.19-253.15-37.71-88.39.52-176.53,13.52-253.14,37.71-.83,8.34-1.28,16.79-1.28,25.36,0,33.45,6.56,65.33,18.33,94.55-.05-.02-.1-.03-.15-.04.58,1.46,1.29,2.85,1.9,4.29,1.08,2.53,2.19,5.02,3.34,7.51,4.6,9.99,9.84,19.61,15.65,28.85.38.58.75,1.17,1.12,1.75,45.21,70.6,124.18,117.5,214.23,117.5s168.96-46.85,214.17-117.4c.68-1.05,1.35-2.1,2.01-3.17,1.84-2.97,3.66-5.95,5.38-9,1.14-2.01,2.2-4.09,3.29-6.13,2.08-3.94,4.09-7.92,5.97-11.98,1.31-2.82,2.58-5.67,3.79-8.55.52-1.24,1.13-2.43,1.63-3.67-.05.02-.1.03-.15.03,11.78-29.22,18.33-61.09,18.33-94.54,0-8.57-.46-17.02-1.27-25.36M2640.68,503.88c-.26.34-.52.67-.77,1.01-1.69,2.24-3.45,4.41-5.24,6.56-1.25,1.49-2.49,2.99-3.79,4.43-1.39,1.57-2.86,3.07-4.31,4.59-2.56,2.68-5.21,5.3-7.93,7.82-1.53,1.42-3.07,2.83-4.65,4.2-33.1,28.76-76.39,46.18-123.67,46.18s-89.19-16.89-122.08-44.85c-2.38-2.01-4.7-4.1-6.98-6.23-1.14-1.07-2.3-2.11-3.4-3.21-2.87-2.84-5.65-5.75-8.32-8.77-.76-.84-1.47-1.72-2.2-2.58-2.43-2.84-4.79-5.74-7.04-8.72-.11-.15-.22-.3-.34-.45h-.03c-14.88-19.88-25.86-42.89-32.22-67.75-4.8-18.79,3.5-32.79,19.15-29.83,49.13,9.27,98.92,50.12,120.96,101.86,14.15-2.44,28.67-3.84,43.51-3.84s28.08,1.23,41.64,3.47c22.12-51.57,71.78-92.25,120.79-101.49,15.65-2.96,23.95,11.04,19.15,29.83-6.36,24.86-17.33,47.86-32.19,67.75h-.05"/>
              <path class="cls-1" d="M2343.53,271.06c34.5-42.8,87.53-70.11,146.8-70.11s112.29,27.31,146.79,70.11c1.24,1.53,2.37,3.12,3.56,4.69,29.64,5.09,58.41,11.63,85.89,19.56-37.52-93.71-129.13-159.91-236.25-159.91s-198.74,66.2-236.25,159.91c27.48-7.94,56.24-14.47,85.88-19.56,1.19-1.57,2.33-3.16,3.56-4.69"/>
            </g>
            <path class="cls-2" d="M1509.28,1233.48c-1.74,0-3.48-.04-5.22-.12-31.15-1.4-75.39-15.68-109.23-75.75-23.91-42.43-34.27-92.35-38.76-126.76-11.54-88.46,2.35-182.32,40.15-271.45,31.98-75.4,73.99-131.43,102.65-158.72,94.76-90.27,208.07-161.31,337.48-211.69-3.76-23.24-9.09-46.71-16.25-70.39-.94-3.12-1.92-6.25-2.93-9.4-17.59,19.48-35.78,37.37-54.06,53.04-72.17,61.87-143.34,87.15-205.8,73.11-60.57-13.61-115.7-65.28-155.25-145.48-36.83-74.68-57.11-167-57.11-259.95h60.17c0,83.9,18.08,166.77,50.91,233.34,31.35,63.57,72.01,103.84,114.48,113.39,7.1,1.59,14.29,2.33,21.49,2.33,60.63,0,123.28-52.21,157.34-85.85,15.27-15.08,30.43-31.9,44.95-49.77-22.04-63.52-39.09-127.67-1.87-181.29,25.86-37.26,71.98-59.3,104.18-61.81,24.52-1.9,38.5,6.95,45.93,14.72,15.22,15.94,17.68,40.87,7.52,76.21-7.2,25.06-20.72,55.48-39.1,87.97-14.55,25.72-31.1,51.06-48.94,75.16,5.44,15.31,10.89,31.01,15.68,46.86,6.68,22.09,12.07,44.43,16.17,67.12.79-.26,1.57-.52,2.36-.78,114.49-37.61,219.61-51.85,274.84-52.62l.84,60.17c-11.31.16-114.63,2.89-256.9,49.62-4.44,1.46-8.87,2.94-13.27,4.45,4.12,52.08,1.88,106.18-6.68,163.17-13.58,90.48-41.43,176.99-66,253.31-7.87,24.44-47.59,120.06-105.93,211.89-74.2,116.79-146.12,175.95-213.86,175.95l.02.02ZM1842.84,451.18c-115.69,47.09-217.18,111.83-302.47,193.07-23.18,22.08-60.33,71.64-88.75,138.65-23.45,55.28-48.71,141.83-35.88,240.17,9.26,71.03,38.04,147.79,91.03,150.18,25.97,1.14,82.04-16.5,165.58-147.99,54.52-85.82,92.49-176.48,99.44-198.06,36.96-114.8,77.65-241.21,71.05-376.02h0ZM1895.4,61.05c-14.71,3.3-39.57,15.23-53.53,35.35-15.35,22.11-13.03,51.89-3.62,86.62,7.85-12.09,15.24-24.31,22.02-36.47,24.4-43.74,32.87-71.59,35.12-85.5h.01Z"/>
          </g>
          <g>
            <path class="cls-2" d="M3920.58,325.92v370.58h-87.19v-366.49c0-122.62-73.58-201.64-178.48-201.64-119.89-1.36-198.91,73.57-198.91,243.87v324.26h-85.83v-366.49c0-123.98-73.57-201.64-174.39-201.64s-200.27,62.67-203,215.26v352.87h-87.19V60.25h87.19v113.08c31.33-84.47,123.98-129.43,217.98-129.43,102.19,0,188.01,54.5,223.44,152.59,49.04-125.34,159.4-152.59,234.33-152.59,153.95,0,252.05,106.27,252.05,282.02h0Z"/>
            <path class="cls-2" d="M4018.62,377.69c0-201.64,151.23-333.79,332.43-333.79s333.79,132.15,333.79,333.79-152.59,335.16-333.79,335.16-332.43-133.52-332.43-335.16h0ZM4597.65,377.69c0-149.86-113.08-250.68-246.6-250.68s-245.23,100.82-245.23,250.68,110.35,252.05,245.23,252.05,246.6-102.18,246.6-252.05h0Z"/>
            <path class="cls-2" d="M5222.99,60.25h94.01l-269.76,636.24h-89.92l-265.68-636.24h92.64l217.99,529.97,220.71-529.97h0Z"/>
            <path class="cls-2" d="M5960.06,414.48h-547.68c14.98,136.24,110.35,215.27,238.41,215.27,87.2,0,164.86-42.24,207.09-111.72l74.94,32.7c-55.86,102.18-164.86,162.13-284.74,162.13-179.84,0-322.89-134.88-322.89-336.52s143.05-332.43,322.89-332.43,314.71,130.79,314.71,332.43c0,12.26-1.36,25.89-2.73,38.15h0ZM5875.59,339.55c-12.26-132.15-103.54-212.54-227.51-212.54s-216.62,76.29-234.34,212.54h461.86-.01Z"/>
          </g>
        </g>
      </g>
    </g>
  </g>
</svg>