<?xml version="1.0" encoding="utf-8"?>
<!-- Generator: Adobe Illustrator 28.0.0, SVG Export Plug-In . SVG Version: 6.00 Build 0)  -->
<svg version="1.1" id="Livello_1" xmlns="http://www.w3.org/2000/svg" xmlns:xlink="http://www.w3.org/1999/xlink" x="0px" y="0px"
	 viewBox="0 0 308.45 131.09" style="enable-background:new 0 0 308.45 131.09;" xml:space="preserve">
<g>
	<g>
		<g>
			<path d="M87.13,98.5c-5.15,0-9.74-1.19-13.78-3.56c-4.04-2.37-7.23-5.61-9.57-9.72c-2.34-4.11-3.51-8.8-3.51-14.08
				c0-5.28,1.17-9.97,3.51-14.08c2.34-4.11,5.53-7.35,9.57-9.72c4.04-2.37,8.63-3.56,13.78-3.56c5.08,0,9.64,1.19,13.68,3.56
				c4.04,2.37,7.23,5.61,9.57,9.72c2.34,4.11,3.51,8.8,3.51,14.08c0,5.28-1.17,9.97-3.51,14.08c-2.34,4.11-5.53,7.35-9.57,9.72
				C96.77,97.31,92.21,98.5,87.13,98.5z M87.13,89.08c3.14,0,5.95-0.78,8.42-2.35c2.47-1.57,4.41-3.71,5.81-6.42
				c1.4-2.71,2.07-5.76,2-9.17c0.07-3.47-0.6-6.56-2-9.27c-1.4-2.71-3.34-4.83-5.81-6.36c-2.47-1.54-5.28-2.31-8.42-2.31
				c-3.14,0-5.96,0.79-8.47,2.36c-2.51,1.57-4.46,3.71-5.86,6.41c-1.4,2.71-2.07,5.76-2,9.17c-0.07,3.41,0.6,6.46,2,9.17
				c1.4,2.71,3.36,4.85,5.86,6.42C81.17,88.29,83.99,89.08,87.13,89.08z"/>
			<path d="M148.67,120.55c-3.74,0-7.47-0.58-11.18-1.75c-3.71-1.17-6.7-2.69-8.97-4.56l3.81-8.02c1.34,1,2.91,1.89,4.71,2.66
				c1.8,0.77,3.71,1.37,5.71,1.8c2,0.43,3.97,0.65,5.91,0.65c3.67,0,6.75-0.6,9.22-1.8c2.47-1.2,4.34-2.97,5.61-5.31
				c1.27-2.34,1.9-5.25,1.9-8.72V85.37l1.1,0.7c-0.33,2.07-1.42,4.06-3.26,5.96c-1.84,1.9-4.13,3.46-6.87,4.66
				c-2.74,1.2-5.55,1.8-8.42,1.8c-5.01,0-9.47-1.19-13.38-3.56c-3.91-2.37-7-5.61-9.27-9.72c-2.27-4.11-3.41-8.8-3.41-14.08
				c0-5.28,1.12-9.97,3.36-14.08c2.24-4.11,5.31-7.35,9.22-9.72c3.91-2.37,8.3-3.56,13.18-3.56c2,0,3.94,0.25,5.81,0.75
				c1.87,0.5,3.61,1.2,5.21,2.1c1.6,0.9,3.04,1.89,4.31,2.96c1.27,1.07,2.31,2.21,3.11,3.41s1.3,2.34,1.5,3.41l-2.21,0.8V44.88
				h10.32v49.41c0,4.21-0.62,7.93-1.85,11.17c-1.24,3.24-3.02,5.98-5.36,8.22c-2.34,2.24-5.18,3.94-8.52,5.11
				C156.65,119.96,152.88,120.55,148.67,120.55z M149.07,88.98c3.27,0,6.18-0.77,8.72-2.31c2.54-1.54,4.51-3.64,5.91-6.31
				c1.4-2.67,2.1-5.75,2.1-9.22c0-3.47-0.72-6.56-2.15-9.27c-1.44-2.71-3.41-4.83-5.91-6.36c-2.5-1.54-5.4-2.31-8.67-2.31
				c-3.21,0-6.06,0.79-8.57,2.36c-2.51,1.57-4.48,3.71-5.91,6.41c-1.44,2.71-2.15,5.76-2.15,9.17s0.72,6.46,2.15,9.17
				c1.44,2.71,3.41,4.83,5.91,6.36C143.01,88.21,145.86,88.98,149.07,88.98z"/>
			<path d="M208.6,98.5c-3.74,0-7-0.87-9.77-2.61s-4.91-4.17-6.41-7.32c-1.5-3.14-2.25-6.88-2.25-11.22V44.88h10.32v29.67
				c0,3.07,0.48,5.73,1.45,7.97c0.97,2.24,2.37,3.96,4.21,5.16c1.84,1.2,4.06,1.8,6.67,1.8c1.94,0,3.71-0.32,5.31-0.95
				c1.6-0.63,2.99-1.52,4.16-2.66c1.17-1.13,2.09-2.5,2.76-4.11c0.67-1.6,1-3.34,1-5.21V44.88h10.32V97.5h-10.32V86.47l1.8-1.2
				c-0.8,2.47-2.15,4.71-4.06,6.71c-1.9,2-4.16,3.59-6.77,4.76C214.41,97.91,211.61,98.5,208.6,98.5z"/>
			<path d="M275.35,98.5c-5.41,0-10.21-1.15-14.38-3.46c-4.18-2.31-7.45-5.46-9.82-9.47c-2.37-4.01-3.56-8.62-3.56-13.83
				c0-4.14,0.67-7.92,2-11.32c1.33-3.41,3.19-6.36,5.56-8.87c2.37-2.51,5.21-4.44,8.52-5.81c3.31-1.37,6.9-2.05,10.77-2.05
				c3.41,0,6.58,0.65,9.52,1.95c2.94,1.3,5.5,3.09,7.67,5.36c2.17,2.27,3.84,4.96,5.01,8.07c1.17,3.11,1.72,6.5,1.65,10.17
				l-0.1,4.41h-43l-2.31-8.22h36.38l-1.5,1.7v-2.41c-0.2-2.21-0.94-4.17-2.21-5.91c-1.27-1.74-2.87-3.11-4.81-4.11
				c-1.94-1-4.04-1.5-6.31-1.5c-3.61,0-6.65,0.69-9.12,2.05c-2.47,1.37-4.34,3.37-5.61,6.01c-1.27,2.64-1.9,5.9-1.9,9.77
				c0,3.68,0.77,6.87,2.31,9.57c1.54,2.71,3.71,4.79,6.51,6.26c2.81,1.47,6.05,2.21,9.72,2.21c2.61,0,5.03-0.43,7.27-1.3
				c2.24-0.87,4.66-2.44,7.27-4.71l5.21,7.32c-1.6,1.6-3.56,3.01-5.86,4.21c-2.3,1.2-4.75,2.15-7.32,2.86
				C280.34,98.15,277.82,98.5,275.35,98.5z"/>
		</g>
	</g>
	<path d="M31.17,58.15C17.82,57.97,6.93,46.88,6.94,33.48C6.95,19.85,18.7,8.64,32.53,9.05c13.11,0.39,24.22,12.23,23.72,25.27
		C55.73,47.72,44.57,58.33,31.17,58.15z"/>
	<path d="M51.78,97.5c-13.14,0-27.47,0-42.67,0c0-15.06,0-29.89,0-43.39C22.91,68.13,37.46,82.93,51.78,97.5z"/>
</g>
</svg>
