<?xml version="1.0" encoding="UTF-8"?>
<svg id="Livello_2" data-name="Livello 2" xmlns="http://www.w3.org/2000/svg" viewBox="0 0 5963.59 1233.78">
  <defs>
    <style>
      .cls-1 {
        fill: #ffcb00;
      }
    </style>
  </defs>
  <g id="Livello_1-2" data-name="Livello 1">
    <g>
      <path d="M530.54,61.18h94.09L225.03,1007.68h-92.74l34.33-63.41c122.59-228.36,58.03-319.16-7.37-501.89L0,61.18h94.11l216.85,520.99L530.54,61.18Z"/>
      <g>
        <path d="M605.65,377.22c-8.21-443.56,680.4-442.51,672.76.02,7.42,444.02-680.82,445.07-672.76-.02ZM1190.37,377.22c5.07-331.85-503.3-332.62-496.66.01-6.44,334.13,501.57,333.37,496.66-.01Z"/>
        <g>
          <g>
            <path class="cls-1" d="M2743.47,364.44c-153.26-49.58-353.04-49.58-506.29,0-4.28,40.61,2.18,83.54,17.05,119.91-.05-.02-.1-.03-.15-.04,82.56,211.23,389.99,211.14,472.48,0-.05.02-.1.03-.15.03,14.88-36.36,21.32-79.3,17.06-119.9M2640.68,503.86c-69.68,98.55-230.99,98.56-300.71,0,0,0-.02,0-.03,0-106.48-162.07,70.54-92.29,107.89,4.28,27.53-4.93,57.55-5.08,85.14-.37,37.85-96.65,213.97-165.56,107.75-3.91-.02,0-.03,0-.05,0"/>
            <path class="cls-1" d="M2343.53,271.04c68.79-93.8,231.46-91.47,297.15,4.69,29.64,5.09,58.41,11.63,85.89,19.56-76.25-209.75-396.3-209.67-472.49,0,27.48-7.94,56.24-14.47,85.88-19.56,1.19-1.57,2.33-3.16,3.56-4.69"/>
          </g>
          <g>
            <path d="M2490.29,711.12c-415.34-7.51-415.28-643.22.01-650.67,415.33,7.51,415.26,643.22-.01,650.67ZM2492.17,83.59c-398.08,7.14-398.02,598.73.01,605.81,398.07-7.14,398.01-598.73-.01-605.81Z"/>
            <path d="M2490.29,720.31c-427.43-7.73-427.36-661.39.01-669.06,427.41,7.73,427.34,661.39-.01,669.06ZM2265.89,601.23c89.82,106.27,266.53,133.39,383.71,54.67-117.72,73.89-293.11,47.37-383.71-54.67ZM2492.17,92.78c-386,6.92-385.94,580.56.01,587.43,385.99-6.92,385.93-580.56-.01-587.43ZM2490.29,69.64c-101.41,0-191.48,50.93-247.39,129.26,92.42-133.41,308.39-165.83,436.27-62.14-52.11-42.03-117.71-67.12-188.87-67.12Z"/>
          </g>
          <g>
            <path d="M2489.5,658.08c-351.65-6.31-351.59-528.89.01-535.15,351.64,6.31,351.58,528.89-.01,535.15ZM2489.5,136.68c-333.58,5.98-333.52,501.71.01,507.65,333.56-5.98,333.51-501.71-.01-507.65Z"/>
            <path d="M2489.5,658.91c-352.75-6.33-352.69-530.55.01-536.82,352.73,6.33,352.68,530.55-.01,536.82ZM2489.5,123.77c-350.55,6.29-350.5,527.24.01,533.48,350.54-6.29,350.48-527.24-.01-533.48ZM2489.5,645.16c-334.68-6-334.62-503.36.01-509.32,334.66,6,334.61,503.36-.01,509.32ZM2489.5,137.52c-332.48,5.96-332.43,500.06.01,505.97,332.47-5.96,332.41-500.06-.01-505.97Z"/>
          </g>
          <g>
            <path d="M2449.43,757.34c-485.68-8.71-485.6-730.48.02-739.12,485.67,8.71,485.59,730.48-.02,739.12ZM2449.43,35.4c-463.09,8.3-463.02,696.51.01,704.74,463.08-8.3,463-696.51-.01-704.74Z"/>
            <path d="M2449.43,769.87c-502.16-9.01-502.08-755.26.02-764.19,502.14,9.01,502.06,755.26-.02,764.19ZM2449.43,47.94c-446.62,8.01-446.55,671.73.01,679.67,446.6-8.01,446.53-671.73-.01-679.67Z"/>
          </g>
          <path d="M1509.28,1233.46c-89.39,7.59-148.04-121.51-153.2-202.63-41.65-316.11,209.07-542.07,480.27-641.85-4.22-26.24-10.7-53.48-19.17-79.78-261.36,298.67-472.93,24.44-472.22-279.28h60.17c-.04,125.42,47.2,310.35,165.39,346.73,96.39,12.83,169.87-71.99,223.79-133.29-49-110.21-20.33-225.89,102.31-243.1,24.51-1.91,38.5,6.95,45.92,14.72,46.39,58.83-41.71,182.56-80.51,239.33,13.39,36.89,25.04,75.17,31.85,113.98,113.7-37.77,222.15-52.77,277.2-53.4l.84,60.17c-1.92-2.05-143.59,8.19-270.17,54.07,21.46,220.83-141.08,765.44-392.47,804.32ZM1842.84,451.16c-172.9,81.85-305.76,144.99-391.23,331.71-43.02,74.26-76.15,360.66,55.16,390.37,205.2-54.66,345.86-515.76,336.07-722.08ZM1895.4,61.03c-54.85,13.73-77.95,59.91-57.15,121.97,22.95-31.73,57.88-106.89,57.15-121.97Z"/>
        </g>
        <g>
          <path d="M3920.58,325.9v370.58h-87.19c-17.49-158.36,80.01-575.04-178.48-568.12-265.56-21.03-188.78,392.58-198.92,568.12h-85.83c-17.11-155.59,78.32-575.1-174.39-568.12-279.95-7.72-189.06,385.41-203,568.12h-87.19V60.23h87.19v113.08c71.25-180.82,383.99-169.69,441.42,23.16,130.41-273.12,503.87-162.04,486.38,129.43Z"/>
          <path d="M4018.62,377.67c-8.14-439.24,673.78-438.21,666.22.02,7.34,439.71-674.2,440.75-666.22-.02ZM4597.65,377.67c5.03-328.62-498.42-329.38-491.83.01-6.39,330.89,496.7,330.13,491.83-.01Z"/>
          <path d="M5222.99,60.23h94.01l-269.76,636.24h-89.92l-265.68-636.24h92.64l217.99,529.97,220.71-529.97Z"/>
          <path d="M5960.06,414.46h-547.68c11.79,235.22,336.19,287.76,445.5,103.54l74.94,32.7c-153.7,281.59-622.95,173.38-607.62-174.4-1.69-463.18,693.64-425.91,634.87,38.16ZM5875.59,339.53c-14.76-281.64-441.39-281.4-461.86,0h461.86Z"/>
        </g>
      </g>
    </g>
  </g>
</svg>